<svg xmlns="http://www.w3.org/2000/svg" xmlns:xlink="http://www.w3.org/1999/xlink" width="9.311" height="7.5" viewBox="0 0 9.311 7.5"><defs><style>.a{fill:none;}.b{clip-path:url(#a);}.c{fill:#303d79;}</style><clipPath id="a"><path class="a" d="M4.72.22a.749.749,0,0,0,0,1.06L6.439,3H.75a.75.75,0,0,0,0,1.5H6.439L4.72,6.22A.75.75,0,1,0,5.78,7.28l3.53-3.53L5.78.22A.749.749,0,0,0,4.72.22Z"/></clipPath></defs><path class="a" d="M4.72.22a.749.749,0,0,0,0,1.06L6.439,3H.75a.75.75,0,0,0,0,1.5H6.439L4.72,6.22A.75.75,0,1,0,5.78,7.28l3.53-3.53L5.78.22A.749.749,0,0,0,4.72.22Z"/><g class="b"><g transform="translate(-5.25 -5.25)"><rect class="c" width="18" height="18"/></g></g></svg>